<svg width="18" height="335" viewBox="0 0 18 335" fill="none" xmlns="http://www.w3.org/2000/svg">
<path d="M7.33984 334.277C5.95964 334.277 4.74544 334.01 3.69727 333.477C2.64258 332.943 1.82227 332.181 1.23633 331.191C0.650391 330.195 0.357422 329.023 0.357422 327.676C0.357422 326.999 0.448568 326.364 0.630859 325.771C0.806641 325.173 1.05078 324.674 1.36328 324.277C1.68229 323.874 1.98828 323.538 2.28125 323.271C2.56771 323.005 2.86719 322.786 3.17969 322.617L3.59961 323.994C2.23893 324.951 1.55859 326.178 1.55859 327.676C1.55859 328.704 1.79948 329.59 2.28125 330.332C2.75651 331.074 3.43034 331.644 4.30273 332.041C5.17513 332.432 6.1875 332.627 7.33984 332.627C8.52474 332.627 9.55013 332.425 10.416 332.021C11.2819 331.618 11.946 331.051 12.4082 330.322C12.8639 329.587 13.0918 328.734 13.0918 327.764C13.0918 326.911 12.9193 326.172 12.5742 325.547C12.2292 324.922 11.7669 324.447 11.1875 324.121C10.6081 323.796 9.9668 323.633 9.26367 323.633H8.02344V327.93H6.80273V322.051H14V323.223L12.0469 323.35C13.5638 324.144 14.3223 325.628 14.3223 327.803C14.3223 329.085 14.0423 330.215 13.4824 331.191C12.916 332.168 12.1055 332.926 11.0508 333.467C9.99609 334.007 8.75911 334.277 7.33984 334.277ZM14 320.195H4.41992V318.701H5.81641C5.33464 318.46 4.93099 318.083 4.60547 317.568C4.27344 317.054 4.10742 316.432 4.10742 315.703C4.10742 315.117 4.1888 314.603 4.35156 314.16H5.60156C5.43229 314.655 5.34766 315.169 5.34766 315.703C5.34766 316.309 5.48438 316.833 5.75781 317.275C6.03125 317.718 6.41862 318.057 6.91992 318.291C7.41471 318.519 7.99414 318.633 8.6582 318.633H14V320.195ZM9.21484 312.373C10.0026 312.373 10.696 312.23 11.2949 311.943C11.8874 311.65 12.3464 311.253 12.6719 310.752C12.9974 310.251 13.1602 309.688 13.1602 309.062C13.1602 308.438 12.9974 307.874 12.6719 307.373C12.3464 306.865 11.8874 306.465 11.2949 306.172C10.696 305.879 10.0026 305.732 9.21484 305.732C8.41406 305.732 7.71419 305.882 7.11523 306.182C6.51628 306.475 6.05729 306.875 5.73828 307.383C5.41927 307.884 5.25977 308.444 5.25977 309.062C5.25977 309.688 5.41927 310.251 5.73828 310.752C6.05729 311.253 6.51628 311.65 7.11523 311.943C7.71419 312.23 8.41406 312.373 9.21484 312.373ZM9.21484 313.965C8.23828 313.965 7.36263 313.77 6.58789 313.379C5.81315 312.988 5.20768 312.425 4.77148 311.689C4.32878 310.947 4.10742 310.072 4.10742 309.062C4.10742 308.06 4.32878 307.188 4.77148 306.445C5.20768 305.703 5.81315 305.137 6.58789 304.746C7.36263 304.349 8.23828 304.15 9.21484 304.15C9.83333 304.15 10.4323 304.245 11.0117 304.434C11.5911 304.616 12.1315 304.893 12.6328 305.264C13.1536 305.648 13.5671 306.169 13.873 306.826C14.1725 307.477 14.3223 308.223 14.3223 309.062C14.3223 309.883 14.1725 310.625 13.873 311.289C13.5736 311.947 13.1667 312.464 12.6523 312.842C12.151 313.213 11.6107 313.493 11.0312 313.682C10.4453 313.87 9.83984 313.965 9.21484 313.965ZM4.41992 303.789V302.021L12.7402 299.844V299.756L4.41992 297.471V295.615L12.7402 293.32V293.232L4.41992 291.055V289.297L14 292.314V294.277L5.88477 296.504V296.582L14 298.799V300.771L4.41992 303.789ZM11.5098 283.809C12.61 283.021 13.1602 281.943 13.1602 280.576C13.1602 279.743 13.0267 279.085 12.7598 278.604C12.4928 278.115 12.1185 277.871 11.6367 277.871C11.4414 277.871 11.2559 277.926 11.0801 278.037C10.9043 278.141 10.7513 278.275 10.6211 278.438C10.5104 278.581 10.3867 278.831 10.25 279.189C10.1523 279.456 10.071 279.701 10.0059 279.922C9.93424 280.143 9.86263 280.394 9.79102 280.674L9.625 281.27C9.48177 281.771 9.34505 282.184 9.21484 282.51C9.07812 282.835 8.9056 283.174 8.69727 283.525C8.48242 283.896 8.21549 284.18 7.89648 284.375C7.57096 284.564 7.19987 284.658 6.7832 284.658C6.26237 284.658 5.80013 284.495 5.39648 284.17C4.98633 283.838 4.67057 283.366 4.44922 282.754C4.22135 282.135 4.10742 281.41 4.10742 280.576C4.10742 279.997 4.20182 279.437 4.39062 278.896C4.57292 278.356 4.82357 277.881 5.14258 277.471C5.46159 277.054 5.8099 276.735 6.1875 276.514L6.7832 277.578C6.34701 277.871 5.98568 278.288 5.69922 278.828C5.40625 279.368 5.25977 279.951 5.25977 280.576C5.25977 281.383 5.39974 282.005 5.67969 282.441C5.95312 282.878 6.32747 283.096 6.80273 283.096C7.35612 283.096 7.79557 282.764 8.12109 282.1C8.24479 281.846 8.3457 281.615 8.42383 281.406C8.49544 281.191 8.58984 280.882 8.70703 280.479L8.82422 280.098C8.94141 279.642 9.04883 279.271 9.14648 278.984C9.23763 278.691 9.35807 278.376 9.50781 278.037C9.67057 277.673 9.84635 277.37 10.0352 277.129C10.2305 276.875 10.4681 276.67 10.748 276.514C11.028 276.351 11.3242 276.27 11.6367 276.27C12.1445 276.27 12.6035 276.445 13.0137 276.797C13.4173 277.142 13.7363 277.64 13.9707 278.291C14.2051 278.942 14.3223 279.704 14.3223 280.576C14.3223 281.54 14.1302 282.402 13.7461 283.164C13.362 283.926 12.8184 284.531 12.1152 284.98L11.5098 283.809ZM14 274.668H4.41992V273.135H5.86523C5.55273 273.005 5.26302 272.799 4.99609 272.52C4.72917 272.233 4.51432 271.882 4.35156 271.465C4.1888 271.048 4.10742 270.583 4.10742 270.068C4.10742 269.313 4.29297 268.721 4.66406 268.291C5.02865 267.861 5.55599 267.52 6.24609 267.266C5.88151 267.116 5.4681 266.797 5.00586 266.309C4.73893 266.022 4.52409 265.654 4.36133 265.205C4.19206 264.756 4.10742 264.268 4.10742 263.74C4.10742 261.631 5.34115 260.576 7.80859 260.576H14V262.158H7.90625C7.30078 262.158 6.80599 262.217 6.42188 262.334C6.03776 262.451 5.74805 262.653 5.55273 262.939C5.35742 263.219 5.25977 263.604 5.25977 264.092C5.25977 264.613 5.39323 265.085 5.66016 265.508C5.92057 265.924 6.2819 266.253 6.74414 266.494C7.20638 266.729 7.72721 266.846 8.30664 266.846H14V268.398H7.88672C6.13542 268.398 5.25977 269.062 5.25977 270.391C5.25977 270.931 5.38346 271.406 5.63086 271.816C5.87826 272.227 6.22656 272.546 6.67578 272.773C7.11849 272.995 7.62956 273.105 8.20898 273.105H14V274.668ZM11.5391 257.363C11.8385 257.363 12.112 257.266 12.3594 257.07C12.6068 256.868 12.8021 256.585 12.9453 256.221C13.0885 255.856 13.1602 255.43 13.1602 254.941C13.1602 254.297 13.0365 253.708 12.7891 253.174C12.5352 252.64 12.1868 252.22 11.7441 251.914C11.3014 251.602 10.8066 251.445 10.2598 251.445H8.93164C9.07487 252.116 9.22461 253.06 9.38086 254.277C9.55013 255.339 9.80729 256.12 10.1523 256.621C10.4974 257.116 10.9596 257.363 11.5391 257.363ZM11.6465 258.945C9.86914 258.945 8.76888 257.376 8.3457 254.238C8.15039 252.891 7.98112 251.96 7.83789 251.445H7.28125C6.88411 251.445 6.5293 251.556 6.2168 251.777C5.9043 251.999 5.66016 252.321 5.48438 252.744C5.30859 253.167 5.2207 253.665 5.2207 254.238C5.2207 254.883 5.35417 255.508 5.62109 256.113C5.88802 256.719 6.24935 257.227 6.70508 257.637L5.95312 258.662C5.38672 258.096 4.9375 257.432 4.60547 256.67C4.27344 255.908 4.10742 255.111 4.10742 254.277C4.10742 251.374 5.35742 249.922 7.85742 249.922H14V251.416H12.4277C12.7663 251.559 13.082 251.813 13.375 252.178C13.6615 252.536 13.8893 252.972 14.0586 253.486C14.2344 253.994 14.3223 254.541 14.3223 255.127C14.3223 255.915 14.2083 256.598 13.9805 257.178C13.7526 257.751 13.4368 258.19 13.0332 258.496C12.6296 258.796 12.1673 258.945 11.6465 258.945ZM14 247.773H4.41992V246.279H5.81641C5.33464 246.038 4.93099 245.661 4.60547 245.146C4.27344 244.632 4.10742 244.01 4.10742 243.281C4.10742 242.695 4.1888 242.181 4.35156 241.738H5.60156C5.43229 242.233 5.34766 242.747 5.34766 243.281C5.34766 243.887 5.48438 244.411 5.75781 244.854C6.03125 245.296 6.41862 245.635 6.91992 245.869C7.41471 246.097 7.99414 246.211 8.6582 246.211H14V247.773ZM5.58203 240.918H4.41992V239.023H1.36328V237.441H4.41992V234.561H5.58203V237.441H11.1973C11.7767 237.441 12.1934 237.314 12.4473 237.061C12.6947 236.8 12.8184 236.383 12.8184 235.811V234.561H14V236.025C14 238.024 13.1048 239.023 11.3145 239.023H5.58203V240.918ZM9.14648 233.809C8.1569 233.809 7.28125 233.6 6.51953 233.184C5.75781 232.767 5.16536 232.184 4.74219 231.436C4.31901 230.68 4.10742 229.821 4.10742 228.857C4.10742 227.887 4.3125 227.044 4.72266 226.328C5.13281 225.605 5.70573 225.052 6.44141 224.668C7.17057 224.277 8.00391 224.082 8.94141 224.082C9.14974 224.082 9.38737 224.095 9.6543 224.121V232.217C10.2988 232.217 10.888 232.08 11.4219 231.807C11.9557 231.527 12.3789 231.13 12.6914 230.615C13.0039 230.094 13.1602 229.486 13.1602 228.789C13.1602 228.092 13.0169 227.471 12.7305 226.924C12.444 226.377 12.0501 225.957 11.5488 225.664L11.9199 224.307C12.6426 224.678 13.2253 225.247 13.668 226.016C14.1042 226.784 14.3223 227.708 14.3223 228.789C14.3223 229.779 14.1074 230.654 13.6777 231.416C13.2415 232.178 12.6328 232.767 11.8516 233.184C11.0703 233.6 10.1686 233.809 9.14648 233.809ZM8.59961 225.664C7.97461 225.664 7.4082 225.798 6.90039 226.064C6.39258 226.325 5.99219 226.699 5.69922 227.188C5.40625 227.669 5.25977 228.226 5.25977 228.857C5.25977 229.502 5.40951 230.072 5.70898 230.566C6.00846 231.061 6.41536 231.449 6.92969 231.729C7.4375 232.008 7.99414 232.161 8.59961 232.188V225.664ZM14 222.5H4.41992V221.006H5.81641C5.33464 220.765 4.93099 220.387 4.60547 219.873C4.27344 219.359 4.10742 218.737 4.10742 218.008C4.10742 217.422 4.1888 216.908 4.35156 216.465H5.60156C5.43229 216.96 5.34766 217.474 5.34766 218.008C5.34766 218.613 5.48438 219.137 5.75781 219.58C6.03125 220.023 6.41862 220.361 6.91992 220.596C7.41471 220.824 7.99414 220.938 8.6582 220.938H14V222.5ZM5.58203 212.812H4.41992V210.918H1.36328V209.336H4.41992V206.455H5.58203V209.336H11.1973C11.7767 209.336 12.1934 209.209 12.4473 208.955C12.6947 208.695 12.8184 208.278 12.8184 207.705V206.455H14V207.92C14 209.919 13.1048 210.918 11.3145 210.918H5.58203V212.812ZM9.21484 204.111C10.0026 204.111 10.696 203.968 11.2949 203.682C11.8874 203.389 12.3464 202.992 12.6719 202.49C12.9974 201.989 13.1602 201.426 13.1602 200.801C13.1602 200.176 12.9974 199.613 12.6719 199.111C12.3464 198.604 11.8874 198.203 11.2949 197.91C10.696 197.617 10.0026 197.471 9.21484 197.471C8.41406 197.471 7.71419 197.62 7.11523 197.92C6.51628 198.213 6.05729 198.613 5.73828 199.121C5.41927 199.622 5.25977 200.182 5.25977 200.801C5.25977 201.426 5.41927 201.989 5.73828 202.49C6.05729 202.992 6.51628 203.389 7.11523 203.682C7.71419 203.968 8.41406 204.111 9.21484 204.111ZM9.21484 205.703C8.23828 205.703 7.36263 205.508 6.58789 205.117C5.81315 204.727 5.20768 204.163 4.77148 203.428C4.32878 202.686 4.10742 201.81 4.10742 200.801C4.10742 199.798 4.32878 198.926 4.77148 198.184C5.20768 197.441 5.81315 196.875 6.58789 196.484C7.36263 196.087 8.23828 195.889 9.21484 195.889C9.83333 195.889 10.4323 195.983 11.0117 196.172C11.5911 196.354 12.1315 196.631 12.6328 197.002C13.1536 197.386 13.5671 197.907 13.873 198.564C14.1725 199.215 14.3223 199.961 14.3223 200.801C14.3223 201.621 14.1725 202.363 13.873 203.027C13.5736 203.685 13.1667 204.202 12.6523 204.58C12.151 204.951 11.6107 205.231 11.0312 205.42C10.4453 205.609 9.83984 205.703 9.21484 205.703ZM9.12695 191.348C8.13737 191.348 7.25846 191.136 6.49023 190.713C5.72201 190.29 5.1263 189.701 4.70312 188.945C4.27995 188.184 4.06836 187.321 4.06836 186.357C4.06836 185.4 4.27669 184.557 4.69336 183.828C5.10352 183.099 5.67969 182.536 6.42188 182.139C7.16406 181.742 8.01367 181.543 8.9707 181.543C9.19206 181.543 9.44596 181.556 9.73242 181.582V189.473C10.3314 189.473 10.8783 189.342 11.373 189.082C11.8613 188.822 12.2487 188.451 12.5352 187.969C12.8216 187.48 12.9648 186.911 12.9648 186.26C12.9648 184.912 12.4538 183.932 11.4316 183.32L11.8711 181.758C12.6068 182.129 13.1992 182.705 13.6484 183.486C14.0911 184.261 14.3125 185.192 14.3125 186.279C14.3125 187.275 14.0977 188.158 13.668 188.926C13.2383 189.694 12.6328 190.29 11.8516 190.713C11.0638 191.136 10.1556 191.348 9.12695 191.348ZM8.53125 183.428C7.94531 183.428 7.41471 183.548 6.93945 183.789C6.45768 184.023 6.08008 184.362 5.80664 184.805C5.5332 185.247 5.39648 185.765 5.39648 186.357C5.39648 186.956 5.53971 187.487 5.82617 187.949C6.10612 188.405 6.48698 188.763 6.96875 189.023C7.44401 189.277 7.96484 189.417 8.53125 189.443V183.428ZM14 181.191L9.0293 177.324L4.37109 181.006V178.799L7.86719 176.26V176.172L4.37109 173.682V171.445L9.0293 175.137L14 171.23V173.428L10.1914 176.172V176.26L14 179.014V181.191ZM2.4668 170.156H0.484375V167.949H2.4668V170.156ZM4.37109 169.941V168.135H14V169.941H4.37109ZM5.74805 167.09H4.37109V165.264H1.36328V163.408H4.37109V160.693H5.74805V163.408H11.0801C11.6204 163.408 12.0111 163.291 12.252 163.057C12.4863 162.822 12.6035 162.448 12.6035 161.934V160.674H14V162.188C14 164.238 13.0723 165.264 11.2168 165.264H5.74805V167.09ZM14 156.064H4.32227V154.062H5.48438C5.07422 153.809 4.72917 153.444 4.44922 152.969C4.16276 152.487 4.01953 151.937 4.01953 151.318C4.01953 150.739 4.08789 150.26 4.22461 149.883H5.96289C5.81966 150.293 5.74805 150.771 5.74805 151.318C5.74805 151.872 5.87826 152.347 6.13867 152.744C6.39909 153.135 6.76693 153.434 7.24219 153.643C7.71745 153.844 8.27409 153.945 8.91211 153.945H14V156.064ZM2.64258 149.102H0.484375V146.758H2.64258V149.102ZM4.32227 148.955V146.875H14V148.955H4.32227ZM9.16602 145.557C8.13737 145.557 7.23568 145.352 6.46094 144.941C5.67969 144.531 5.07747 143.955 4.6543 143.213C4.23112 142.471 4.01953 141.615 4.01953 140.645C4.01953 139.967 4.14323 139.349 4.39062 138.789C4.63802 138.229 4.97331 137.764 5.39648 137.393C5.81315 137.021 6.27214 136.764 6.77344 136.621L7.21289 138.408C6.74414 138.59 6.36328 138.877 6.07031 139.268C5.77734 139.652 5.63086 140.104 5.63086 140.625C5.63086 141.185 5.78385 141.673 6.08984 142.09C6.38932 142.507 6.80599 142.826 7.33984 143.047C7.8737 143.268 8.48242 143.379 9.16602 143.379C9.88216 143.379 10.5104 143.262 11.0508 143.027C11.5846 142.793 11.9948 142.467 12.2812 142.051C12.5677 141.634 12.7109 141.159 12.7109 140.625C12.7109 140.254 12.6328 139.902 12.4766 139.57C12.3138 139.232 12.1022 138.939 11.8418 138.691C11.5749 138.444 11.2884 138.258 10.9824 138.135L11.4512 136.357C11.9655 136.527 12.4408 136.82 12.877 137.236C13.3132 137.646 13.6615 138.148 13.9219 138.74C14.1823 139.333 14.3125 139.967 14.3125 140.645C14.3125 141.608 14.1009 142.464 13.6777 143.213C13.2546 143.955 12.6556 144.531 11.8809 144.941C11.0996 145.352 10.1947 145.557 9.16602 145.557ZM14 135.049H0.210938V132.969H5.48438V132.93C5.05469 132.656 4.70312 132.249 4.42969 131.709C4.15625 131.169 4.01953 130.586 4.01953 129.961C4.01953 128.861 4.32552 127.998 4.9375 127.373C5.54948 126.742 6.49349 126.426 7.76953 126.426H14V128.486H8.0332C6.43164 128.486 5.63086 129.105 5.63086 130.342C5.63086 130.817 5.75781 131.257 6.01172 131.66C6.25911 132.064 6.59766 132.383 7.02734 132.617C7.45052 132.852 7.91276 132.969 8.41406 132.969H14V135.049ZM9.10742 125.088C8.09831 125.088 7.20964 124.876 6.44141 124.453C5.67318 124.023 5.07747 123.431 4.6543 122.676C4.23112 121.921 4.01953 121.071 4.01953 120.127C4.01953 119.176 4.23112 118.333 4.6543 117.598C5.07747 116.855 5.66667 116.279 6.42188 115.869C7.17708 115.459 8.03646 115.254 9 115.254L9.79102 115.312V122.959C10.3379 122.959 10.8392 122.842 11.2949 122.607C11.7441 122.367 12.1022 122.021 12.3691 121.572C12.6361 121.123 12.7695 120.596 12.7695 119.99C12.7695 119.378 12.6361 118.831 12.3691 118.35C12.1022 117.861 11.7409 117.487 11.2852 117.227L11.8223 115.459C12.5775 115.83 13.1829 116.406 13.6387 117.188C14.0879 117.962 14.3125 118.903 14.3125 120.01C14.3125 121.006 14.0977 121.888 13.668 122.656C13.2383 123.424 12.6296 124.023 11.8418 124.453C11.054 124.876 10.1426 125.088 9.10742 125.088ZM8.44336 117.402C7.89648 117.402 7.40169 117.513 6.95898 117.734C6.51628 117.949 6.17122 118.265 5.92383 118.682C5.66992 119.092 5.54297 119.574 5.54297 120.127C5.54297 120.674 5.67318 121.156 5.93359 121.572C6.1875 121.989 6.53581 122.314 6.97852 122.549C7.42122 122.777 7.90951 122.897 8.44336 122.91V117.402ZM14 113.955H4.32227V111.953H5.48438C5.07422 111.699 4.72917 111.335 4.44922 110.859C4.16276 110.378 4.01953 109.827 4.01953 109.209C4.01953 108.63 4.08789 108.151 4.22461 107.773H5.96289C5.81966 108.184 5.74805 108.662 5.74805 109.209C5.74805 109.762 5.87826 110.238 6.13867 110.635C6.39909 111.025 6.76693 111.325 7.24219 111.533C7.71745 111.735 8.27409 111.836 8.91211 111.836H14V113.955ZM4.3125 103.369V101.064H14V103.369H4.3125ZM0.552734 103.477V100.967H2.87695V103.477H0.552734ZM4.3125 99.3066V97.0215H5.44531C5.21094 96.8978 4.98633 96.7057 4.77148 96.4453C4.55013 96.1849 4.37109 95.8691 4.23438 95.498C4.09115 95.127 4.01953 94.7266 4.01953 94.2969C4.01953 93.1185 4.5957 92.2526 5.74805 91.6992C5.5918 91.6211 5.43555 91.5104 5.2793 91.3672C5.11654 91.224 4.92773 91.0254 4.71289 90.7715C4.49805 90.5176 4.32878 90.1888 4.20508 89.7852C4.08138 89.3815 4.01953 88.9518 4.01953 88.4961C4.01953 86.3086 5.27279 85.2148 7.7793 85.2148H14V87.5879H7.83789C7.14779 87.5879 6.64323 87.6953 6.32422 87.9102C5.9987 88.1185 5.83594 88.4798 5.83594 88.9941C5.83594 89.4108 5.94336 89.7786 6.1582 90.0977C6.37305 90.4167 6.66927 90.6641 7.04688 90.8398C7.41797 91.0156 7.83464 91.1035 8.29688 91.1035H14V93.4277H7.78906C6.48698 93.4277 5.83594 93.9062 5.83594 94.8633C5.83594 95.5208 6.05729 96.0352 6.5 96.4062C6.9362 96.7773 7.52539 96.9629 8.26758 96.9629H14V99.3066H4.3125ZM4.3125 83.4277V81.1426H5.44531C5.21094 81.0189 4.98633 80.8268 4.77148 80.5664C4.55013 80.306 4.37109 79.9902 4.23438 79.6191C4.09115 79.248 4.01953 78.8477 4.01953 78.418C4.01953 77.2396 4.5957 76.3737 5.74805 75.8203C5.5918 75.7422 5.43555 75.6315 5.2793 75.4883C5.11654 75.3451 4.92773 75.1465 4.71289 74.8926C4.49805 74.6387 4.32878 74.3099 4.20508 73.9062C4.08138 73.5026 4.01953 73.0729 4.01953 72.6172C4.01953 70.4297 5.27279 69.3359 7.7793 69.3359H14V71.709H7.83789C7.14779 71.709 6.64323 71.8164 6.32422 72.0312C5.9987 72.2396 5.83594 72.6009 5.83594 73.1152C5.83594 73.5319 5.94336 73.8997 6.1582 74.2188C6.37305 74.5378 6.66927 74.7852 7.04688 74.9609C7.41797 75.1367 7.83464 75.2246 8.29688 75.2246H14V77.5488H7.78906C6.48698 77.5488 5.83594 78.0273 5.83594 78.9844C5.83594 79.6419 6.05729 80.1562 6.5 80.5273C6.9362 80.8984 7.52539 81.084 8.26758 81.084H14V83.4277H4.3125ZM14.3027 62.9395C14.3027 63.9225 14.0911 64.7982 13.668 65.5664C13.2383 66.3346 12.6328 66.9336 11.8516 67.3633C11.0638 67.7865 10.1523 67.998 9.11719 67.998C8.10156 67.998 7.20964 67.7832 6.44141 67.3535C5.66667 66.9238 5.07096 66.3314 4.6543 65.5762C4.23112 64.821 4.01953 63.9681 4.01953 63.0176C4.01953 62.0931 4.23112 61.263 4.6543 60.5273C5.07747 59.7917 5.66992 59.2188 6.43164 58.8086C7.18685 58.3919 8.05273 58.1836 9.0293 58.1836C9.32227 58.1836 9.61198 58.2031 9.89844 58.2422V65.6348C10.3867 65.6348 10.8359 65.5241 11.2461 65.3027C11.6562 65.0749 11.985 64.7559 12.2324 64.3457C12.4733 63.929 12.5938 63.4505 12.5938 62.9102C12.5938 62.3242 12.4668 61.8034 12.2129 61.3477C11.959 60.8919 11.6172 60.5436 11.1875 60.3027L11.7832 58.3496C12.5384 58.7142 13.1471 59.2936 13.6094 60.0879C14.0716 60.8757 14.3027 61.8262 14.3027 62.9395ZM8.4043 60.5664C7.90951 60.5664 7.46029 60.6673 7.05664 60.8691C6.64648 61.0645 6.32422 61.3477 6.08984 61.7188C5.85547 62.0898 5.73828 62.5228 5.73828 63.0176C5.73828 63.5254 5.85872 63.9746 6.09961 64.3652C6.34049 64.7559 6.66602 65.0586 7.07617 65.2734C7.47982 65.4818 7.92253 65.5892 8.4043 65.5957V60.5664ZM14.3027 52.8125C14.3027 53.3659 14.2018 53.903 14 54.4238C13.8047 54.9382 13.515 55.4167 13.1309 55.8594C12.7337 56.3151 12.1901 56.6764 11.5 56.9434C10.8099 57.2038 10.0254 57.334 9.14648 57.334C8.11133 57.334 7.20638 57.1419 6.43164 56.7578C5.6569 56.3672 5.0612 55.8268 4.64453 55.1367C4.22786 54.4466 4.01953 53.6621 4.01953 52.7832C4.01953 52.1842 4.14974 51.6536 4.41016 51.1914C4.67057 50.7227 4.99935 50.3613 5.39648 50.1074H0.298828V47.7637H14V50.0195H12.75C13.0299 50.1758 13.2904 50.3971 13.5312 50.6836C13.7656 50.9701 13.9512 51.2988 14.0879 51.6699C14.2311 52.041 14.3027 52.4219 14.3027 52.8125ZM9.14648 54.9316C9.83659 54.9316 10.4355 54.8307 10.9434 54.6289C11.4447 54.4206 11.8288 54.1341 12.0957 53.7695C12.3561 53.3984 12.4863 52.9688 12.4863 52.4805C12.4863 52.0052 12.3529 51.5853 12.0859 51.2207C11.8125 50.8496 11.4251 50.5632 10.9238 50.3613C10.416 50.1595 9.82357 50.0586 9.14648 50.0586C8.48893 50.0586 7.90951 50.1595 7.4082 50.3613C6.9069 50.5566 6.51953 50.8366 6.24609 51.2012C5.97266 51.5658 5.83594 51.9922 5.83594 52.4805C5.83594 52.9818 5.97266 53.418 6.24609 53.7891C6.51953 54.1602 6.9069 54.4434 7.4082 54.6387C7.90299 54.834 8.48242 54.9316 9.14648 54.9316ZM4.3125 46.0059V43.7012H14V46.0059H4.3125ZM0.552734 46.1133V43.6035H2.87695V46.1133H0.552734ZM14.3027 38.7207C14.3027 39.4889 14.1855 40.1562 13.9512 40.7227C13.7103 41.2826 13.375 41.7122 12.9453 42.0117C12.5156 42.3112 12.0208 42.4609 11.4609 42.4609C9.64453 42.4609 8.53125 40.9766 8.12109 38.0078C7.97135 36.8685 7.83789 36.1035 7.7207 35.7129H7.21289C6.74414 35.7129 6.37305 35.8984 6.09961 36.2695C5.82617 36.6341 5.68945 37.1257 5.68945 37.7441C5.68945 38.9095 6.12891 39.9186 7.00781 40.7715L5.89453 42.1973C5.30208 41.6309 4.8431 40.9635 4.51758 40.1953C4.18555 39.4271 4.01953 38.6198 4.01953 37.7734C4.01953 36.237 4.35807 35.1172 5.03516 34.4141C5.71224 33.7044 6.69857 33.3496 7.99414 33.3496H14V35.6348H12.7891C13.069 35.7845 13.3229 36.0124 13.5508 36.3184C13.7786 36.6178 13.9609 36.9759 14.0977 37.3926C14.2344 37.8092 14.3027 38.252 14.3027 38.7207ZM11.2852 40.1074C11.6497 40.1074 11.9492 39.9512 12.1836 39.6387C12.418 39.3197 12.5352 38.903 12.5352 38.3887C12.5352 37.8939 12.4342 37.4447 12.2324 37.041C12.0241 36.6309 11.7376 36.3086 11.373 36.0742C11.002 35.8333 10.5788 35.7129 10.1035 35.7129H9.21484C9.33854 36.2728 9.45573 36.9531 9.56641 37.7539C9.78776 39.3229 10.3607 40.1074 11.2852 40.1074ZM14 27.4414C14 29.6159 13.0137 30.7031 11.041 30.7031H6.12891V32.3535H4.3125V30.7031H1.46094V28.3789H4.3125V25.918H6.12891V28.3789H10.8945C11.3503 28.3789 11.679 28.278 11.8809 28.0762C12.0827 27.8743 12.1836 27.5618 12.1836 27.1387V25.9082H14V27.4414ZM14.3027 20.3027C14.3027 21.2858 14.0911 22.1615 13.668 22.9297C13.2383 23.6979 12.6328 24.2969 11.8516 24.7266C11.0638 25.1497 10.1523 25.3613 9.11719 25.3613C8.10156 25.3613 7.20964 25.1465 6.44141 24.7168C5.66667 24.2871 5.07096 23.6947 4.6543 22.9395C4.23112 22.1842 4.01953 21.3314 4.01953 20.3809C4.01953 19.4564 4.23112 18.6263 4.6543 17.8906C5.07747 17.1549 5.66992 16.582 6.43164 16.1719C7.18685 15.7552 8.05273 15.5469 9.0293 15.5469C9.32227 15.5469 9.61198 15.5664 9.89844 15.6055V22.998C10.3867 22.998 10.8359 22.8874 11.2461 22.666C11.6562 22.4382 11.985 22.1191 12.2324 21.709C12.4733 21.2923 12.5938 20.8138 12.5938 20.2734C12.5938 19.6875 12.4668 19.1667 12.2129 18.7109C11.959 18.2552 11.6172 17.9069 11.1875 17.666L11.7832 15.7129C12.5384 16.0775 13.1471 16.6569 13.6094 17.4512C14.0716 18.2389 14.3027 19.1895 14.3027 20.3027ZM8.4043 17.9297C7.90951 17.9297 7.46029 18.0306 7.05664 18.2324C6.64648 18.4277 6.32422 18.7109 6.08984 19.082C5.85547 19.4531 5.73828 19.8861 5.73828 20.3809C5.73828 20.8887 5.85872 21.3379 6.09961 21.7285C6.34049 22.1191 6.66602 22.4219 7.07617 22.6367C7.47982 22.8451 7.92253 22.9525 8.4043 22.959V17.9297ZM0.298828 14.248V11.9141H14V14.248H0.298828ZM16.1777 9.89258V9.56055C16.1777 8.99414 16.0671 8.53841 15.8457 8.19336C15.6243 7.8418 15.2467 7.5651 14.7129 7.36328L13.7559 7.00195L4.3125 10.9961V8.42773L11.5293 5.89844V5.82031L4.3125 3.45703V0.898438L15.2695 5.33203C16.2266 5.70964 16.9134 6.20768 17.3301 6.82617C17.7533 7.43815 17.9648 8.21615 17.9648 9.16016V9.89258H16.1777Z" fill="black"/>
</svg>
